PathFileType	3	(X/Y/Z)	F:\ViconData\AntennenMessung\Messung1\Session1\ID17.trc
DataRate	CameraRate	NumFrames	NumMarkers	Units	OrigDataRate	OrigDataStartFrame	OrigNumFrames
120.0	120.0	4	70	mm	120.0	661	880	
Frame#	Time	Ashort			Along			Atop			A4			Bshort			Blong			Btop			B4			Cshort			Clong			Ctop			C4			Dshort			Dlong			Dtop			D4			Eshort			Elong			Etop			E4			Fshort			Flong			Ftop			F4			Gshort			Glong			Gtop			G4			Hshort			Hlong			Htop			H4			I1			I2			I3			I4			I5			WandAshort			WandAlong			WandAtop			WandA4			WandA15			WandBshort			WandB4			WandB5			WandBtop			WandBlong			WandCshort			WandClong			WandCtop			WandC4			WandC5			Acenter			Aantenna			Bcenter			Bantenna			Ccenter			Cantenna			Dcenter			Dantenna			Ecenter			Eantenna			Fcenter			Fantenna			Gcenter			Gantenna			Hcenter			Hantenna			Icenter			Iantenna			
		X1	Y1	Z1	X2	Y2	Z2	X3	Y3	Z3	X4	Y4	Z4	X5	Y5	Z5	X6	Y6	Z6	X7	Y7	Z7	X8	Y8	Z8	X9	Y9	Z9	X10	Y10	Z10	X11	Y11	Z11	X12	Y12	Z12	X13	Y13	Z13	X14	Y14	Z14	X15	Y15	Z15	X16	Y16	Z16	X17	Y17	Z17	X18	Y18	Z18	X19	Y19	Z19	X20	Y20	Z20	X21	Y21	Z21	X22	Y22	Z22	X23	Y23	Z23	X24	Y24	Z24	X25	Y25	Z25	X26	Y26	Z26	X27	Y27	Z27	X28	Y28	Z28	X29	Y29	Z29	X30	Y30	Z30	X31	Y31	Z31	X32	Y32	Z32	X33	Y33	Z33	X34	Y34	Z34	X35	Y35	Z35	X36	Y36	Z36	X37	Y37	Z37	X38	Y38	Z38	X39	Y39	Z39	X40	Y40	Z40	X41	Y41	Z41	X42	Y42	Z42	X43	Y43	Z43	X44	Y44	Z44	X45	Y45	Z45	X46	Y46	Z46	X47	Y47	Z47	X48	Y48	Z48	X49	Y49	Z49	X50	Y50	Z50	X51	Y51	Z51	X52	Y52	Z52	X53	Y53	Z53	X54	Y54	Z54	X55	Y55	Z55	X56	Y56	Z56	X57	Y57	Z57	X58	Y58	Z58	X59	Y59	Z59	X60	Y60	Z60	X61	Y61	Z61	X62	Y62	Z62	X63	Y63	Z63	X64	Y64	Z64	X65	Y65	Z65	X66	Y66	Z66	X67	Y67	Z67	X68	Y68	Z68	X69	Y69	Z69	X70	Y70	Z70	
661	5.5	-1038.2261	214.47412	-1644.1959	-1109.4084	204.11763	-1599.3337	-1063.7722	172.98898	-1625.9852	-1054.1503	262.17752	-1634.9523	-1353.009	234.78178	1003.7809	-1281.3126	227.22626	1052.2645	-1322.9053	193.58455	1021.0311	-1284.6017	287.84531	1052.7815	813.96552	187.63742	1209.3611	892.59125	179.19495	1178.6163	844.46692	145.44156	1198.3497	860.90509	292.53278	1168.4038	1115.6821	209.42662	-1401.5601	1056.2119	193.9924	-1460.3243	1095.1481	162.34866	-1423.9738	1069.7797	238.6505	-1425.8263	-1204.5065	1685.9349	-1563.2346	-1129.1522	1688.2784	-1606.0228	-1173.1733	1724.4099	-1581.9745	-1134.0784	1580.9512	-1603.8452	-1239.4249	1698.8755	1119.4041	-1309.2155	1698.5865	1071.8674	-1270.3783	1736.2314	1096.8824	-1245.4556	1592.7177	1110.7057	988.86298	1664.188	1162.1875	955.77069	1702.3359	1181.0656	922.66003	1662.1801	1215.1101	939.79852	1659.4254	1159.8783	999.02887	1668.4209	-1579.4449	1058.7396	1669.9429	-1518.6414	1024.9647	1708.0076	-1551.1238	1059.2499	1672.0992	-1585.446	-184.52225	167.24007	-294.00854	-175.21918	174.71585	-377.53302	-180.06483	132.54976	-335.29626	-211.83443	170.22536	-333.14746	-133.10178	168.93008	-326.17081																																														-1068.584	210.05727	-1625.063	-1073.603	248.72101	-1624.1011	-1321.6072	231.47258	1025.0159	-1320.2792	270.23618	1029.0927	847.74841	184.00993	1196.1509	851.04944	222.80701	1193.9392	1088.8198	202.45511	-1428.1033	1082.7727	240.78079	-1432.0497	-1171.8851	1686.9493	-1581.7578	-1170.5449	1647.973	-1581.5322	-1270.9415	1698.745	1097.9371	-1271.5271	1659.7649	1099.0337	953.41919	1705.0464	1182.407	972.74475	1731.9789	1161.8601	1026.4065	1669.1187	-1551.5663	1027.8513	1630.1479	-1552.0096	-180.30028	170.63275	-331.91391	-180.54047	209.4791	-328.46378
662	5.5083333	-1038.246	214.49443	-1644.2031	-1109.3857	204.06868	-1599.3286	-1063.7349	173.06036	-1625.7539	-1054.196	262.20078	-1634.9595	-1352.8518	234.83647	1003.7546	-1281.3966	227.24062	1052.3335	-1322.8771	193.66284	1021.0625	-1284.611	287.82376	1052.8181	813.96655	187.58817	1209.5367	892.07129	178.42114	1179.1534	844.43982	145.55855	1198.3159	860.83624	292.56241	1168.3502	1115.6981	209.46382	-1401.5472	1056.2427	193.90065	-1460.2242	1095.2028	162.44145	-1423.9825	1069.7618	238.66524	-1425.8704	-1204.5999	1685.9943	-1563.0709	-1129.1689	1688.4265	-1606.6022	-1173.1855	1724.415	-1581.9736	-1134.0784	1580.9619	-1603.8553	-1239.4908	1698.8496	1119.3839	-1309.0563	1698.3564	1071.7983	-1270.3241	1736.149	1096.8534	-1245.4207	1592.6497	1110.6832	988.82233	1664.1954	1162.2395	955.78894	1702.3037	1181.1061	922.30566	1662.145	1215.0542	939.79346	1659.4235	1159.8872	999.03186	1668.4069	-1579.4324	1058.8788	1670.1458	-1518.6324	1024.9539	1708.0232	-1551.1191	1059.2422	1672.1169	-1585.4423	-184.52544	167.23973	-293.99945	-175.21004	174.70316	-377.55093	-180.2831	132.46065	-335.02606	-211.84261	170.22713	-333.12671	-133.10771	168.91022	-326.15079																																														-1068.681	210.03406	-1625.0048	-1073.8511	248.68192	-1624.2218	-1321.5531	231.50934	1025.033	-1320.1971	270.27304	1029.0996	848.10193	183.58174	1196.2578	851.83545	222.34589	1194.1598	1088.797	202.42215	-1428.0959	1082.6588	240.7338	-1432.0378	-1171.9468	1687.047	-1581.915	-1170.6547	1648.0686	-1581.8538	-1270.8136	1698.6274	1097.9579	-1271.3223	1659.6476	1099.1052	953.32611	1705.1449	1182.5127	972.77283	1732.1014	1162.1124	1026.4979	1669.2048	-1551.5288	1028.0481	1630.2378	-1551.9401	-180.33052	170.60065	-331.62439	-180.37881	209.44641	-328.15979
663	5.5166667	-1038.2417	214.46523	-1644.1777	-1109.3907	204.14684	-1599.3611	-1063.6836	173.09782	-1625.7637	-1054.2079	262.1893	-1634.9518	-1352.9161	234.76993	1003.8242	-1281.3042	227.27505	1052.2408	-1322.8519	193.66141	1021.0397	-1284.6987	287.84747	1052.8014	813.98596	187.63567	1209.5156	892.04681	178.35701	1179.2206	844.36902	145.52367	1198.2391	860.92657	292.55771	1168.4545	1115.6969	209.44099	-1401.5598	1056.2142	193.95731	-1460.2947	1095.1498	162.45508	-1423.9578	1069.813	238.71291	-1425.8809	-1204.5837	1685.9846	-1563.0906	-1129.1466	1688.2341	-1605.9946	-1173.1802	1724.4061	-1581.9766	-1134.0675	1580.934	-1603.8278	-1239.4805	1698.821	1119.3672	-1309.197	1698.5643	1071.8638	-1270.3464	1736.1984	1096.87	-1245.4535	1592.6971	1110.6941	988.87225	1664.243	1162.2275	955.80371	1702.3071	1181.0873	922.91547	1661.9521	1215.0985	939.78375	1659.3984	1159.8503	999.03381	1668.39	-1579.4205	1058.8818	1670.1432	-1518.6272	1024.9487	1708.0045	-1551.1136	1059.2345	1672.1166	-1585.4438	-184.56433	167.29228	-294.06659	-175.20999	174.72144	-377.53503	-180.30801	132.38556	-335.07635	-211.86911	170.25357	-333.12808	-133.11829	168.90221	-326.17468																																														-1068.5986	210.0627	-1625.0558	-1073.738	248.71548	-1624.3158	-1321.5781	231.49011	1025.0117	-1320.2729	270.25516	1029.082	848.1264	183.57756	1196.2657	851.95349	222.33725	1194.2559	1088.8243	202.44594	-1428.0944	1082.7632	240.76758	-1432.0583	-1171.8958	1686.9592	-1581.6814	-1170.5588	1647.9834	-1581.3743	-1270.9341	1698.7052	1097.9353	-1271.5453	1659.7257	1099.043	953.60211	1704.8412	1182.3428	972.87982	1731.7844	1161.7654	1026.4994	1669.1946	-1551.5211	1028.0565	1630.2278	-1551.9302	-180.34941	170.63972	-331.67615	-180.39146	209.48656	-328.2233
664	5.525	-1038.2172	214.45688	-1644.1887	-1109.3743	204.11951	-1599.3438	-1063.6924	173.10492	-1625.7812	-1054.137	262.19131	-1634.9543	-1352.9768	234.80246	1003.7985	-1281.2899	227.22618	1052.2308	-1322.8561	193.62328	1021.0811	-1284.7108	287.74881	1052.864	813.99933	187.63622	1209.3953	892.19006	178.50734	1179.2064	844.44232	145.57886	1198.2845	861.00043	292.6105	1168.5068	1115.6993	209.46103	-1401.5526	1056.1332	193.85834	-1460.2555	1095.0831	162.40152	-1423.9225	1069.7919	238.67725	-1425.8602	-1204.589	1685.9783	-1563.0901	-1129.146	1688.2705	-1606.0192	-1173.1864	1724.3918	-1581.9716	-1134.0657	1580.9446	-1603.8508	-1239.5027	1698.8837	1119.402	-1309.166	1698.4877	1071.8385	-1270.3754	1736.2198	1096.8765	-1245.4133	1592.6249	1110.6769	988.8573	1664.2185	1162.2406	955.75543	1702.2687	1181.0588	922.797	1661.9969	1215.0913	939.75793	1659.4161	1159.8973	999.00885	1668.4177	-1579.4398	1058.7424	1669.9628	-1518.6418	1024.9539	1708.0194	-1551.1144	1059.2322	1672.1073	-1585.4427	-184.5367	167.25317	-294.03333	-175.22777	174.70982	-377.534	-180.33142	132.40125	-335.09793	-211.83842	170.22031	-333.14423	-133.10353	168.90456	-326.16339																																														-1068.5942	210.04384	-1625.0443	-1073.7236	248.69734	-1624.2733	-1321.5319	231.47917	1025.0428	-1320.176	270.2439	1029.1	848.09497	183.65549	1196.2311	851.81384	222.42145	1194.1406	1088.7418	202.39986	-1428.1193	1082.6677	240.71361	-1432.1393	-1171.8923	1686.9717	-1581.6952	-1170.5446	1647.9961	-1581.4076	-1270.9036	1698.7051	1097.9625	-1271.4524	1659.7252	1099.0909	953.48132	1704.8826	1182.3516	972.76123	1731.8291	1161.7804	1026.4067	1669.1262	-1551.5536	1027.8627	1630.1559	-1551.9937	-180.339	170.6156	-331.68622	-180.34673	209.46109	-328.21817
